<svg width="1440" height="1777" viewBox="0 0 1440 1777" fill="none" xmlns="http://www.w3.org/2000/svg">
<path d="M-585.236 242.928C-594.837 173.989 -545.448 84.3563 -271.081 277.342C71.8774 518.574 42.4118 515.97 266.746 552.7C491.081 589.431 635.022 658.127 807.582 811.353C980.142 964.58 1020.42 1021.26 1169.05 1051.17C1317.69 1081.08 1335.77 1022.94 1498.33 1139.85" stroke="#F68338" stroke-width="3"/>
<path d="M-148.395 651.023C-157.96 582.104 -108.569 492.473 165.52 685.298C508.131 926.329 478.688 923.738 702.846 960.367C927.003 996.995 1070.81 1065.62 1243.18 1218.73C1415.56 1371.85 1455.78 1428.5 1604.3 1458.34C1752.81 1488.19 1770.91 1430.05 1933.3 1546.86" stroke="#3A3A3A" stroke-width="3"/>
<path d="M-564.196 263.158C-573.659 194.063 -524.078 104.102 -250.044 297.024C92.4971 538.175 63.0306 535.625 287.338 571.994C511.645 608.364 655.477 676.944 827.763 830.211C1000.05 983.478 1040.22 1040.22 1188.82 1069.91C1337.43 1099.59 1355.64 1041.27 1517.99 1158.14" stroke="#ED8038" stroke-width="3"/>
<path d="M-542.639 282.533C-552.205 213.614 -502.813 123.983 -228.724 316.808C113.887 557.839 84.4436 555.248 308.601 591.877C532.759 628.505 676.568 697.125 848.94 850.243C1021.31 1003.36 1061.53 1060.01 1210.05 1089.85C1358.57 1119.7 1376.66 1061.56 1539.06 1178.37" stroke="#E47C38" stroke-width="3"/>
<path d="M-523.455 301.692C-532.954 232.576 -483.374 142.614 -209.063 335.696C133.826 577.048 104.337 574.484 328.821 610.956C553.305 647.428 697.269 716.084 869.743 869.46C1042.22 1022.84 1082.44 1079.61 1231.16 1109.36C1379.89 1139.12 1398.09 1080.79 1560.61 1197.76" stroke="#DB7938" stroke-width="3"/>
<path d="M-501.915 321.056C-511.48 252.137 -462.089 162.506 -188 355.331C154.611 596.362 125.168 593.771 349.326 630.4C573.483 667.028 717.292 735.648 889.664 888.766C1062.04 1041.88 1102.26 1098.53 1250.78 1128.38C1399.29 1158.22 1417.39 1100.08 1579.78 1216.89" stroke="#D27538" stroke-width="3"/>
<path d="M-480.858 341.296C-490.321 272.201 -440.74 182.24 -166.706 375.162C175.835 616.313 146.369 613.763 370.676 650.132C594.983 686.502 738.815 755.082 911.101 908.349C1083.39 1061.62 1123.56 1118.36 1272.16 1148.05C1420.77 1177.73 1438.98 1119.41 1601.33 1236.28" stroke="#C97239" stroke-width="3"/>
<path d="M-461.174 359.589C-470.775 290.649 -421.385 201.017 -147.018 394.002C195.94 635.234 166.474 632.63 390.809 669.361C615.143 706.091 759.084 774.787 931.645 928.014C1104.2 1081.24 1144.48 1137.92 1293.12 1167.83C1441.75 1197.74 1459.84 1139.6 1622.4 1256.51" stroke="#C06E39" stroke-width="3"/>
<path d="M-439.634 378.954C-449.199 310.035 -399.808 220.403 -125.719 413.228C216.892 654.26 187.449 651.669 411.607 688.297C635.765 724.926 779.573 793.546 951.946 946.663C1124.32 1099.78 1164.54 1156.43 1313.06 1186.27C1461.57 1216.12 1479.67 1157.98 1642.06 1274.79" stroke="#B76B39" stroke-width="3"/>
<path d="M-418.577 399.193C-428.04 330.098 -378.459 240.137 -104.425 433.058C238.116 674.21 208.65 671.659 432.957 708.029C657.264 744.399 801.096 812.979 973.382 966.246C1145.67 1119.51 1185.84 1176.26 1334.44 1205.94C1483.05 1235.63 1501.26 1177.3 1663.61 1294.18" stroke="#AF6739" stroke-width="3"/>
<path d="M-398.892 417.487C-408.493 348.547 -359.104 258.915 -84.7369 451.9C258.221 693.132 228.756 690.528 453.09 727.259C677.425 763.989 821.366 832.685 993.926 985.912C1166.49 1139.14 1206.76 1195.82 1355.4 1225.73C1504.03 1255.64 1522.12 1197.5 1684.68 1314.41" stroke="#A66439" stroke-width="3"/>
<path d="M-377.852 437.717C-387.316 368.621 -337.734 278.66 -63.7007 471.582C278.841 712.734 249.374 710.183 473.681 746.553C697.989 782.923 841.821 851.502 1014.11 1004.77C1186.39 1158.04 1226.56 1214.78 1375.17 1244.47C1523.78 1274.15 1541.98 1215.83 1704.34 1332.7" stroke="#9D6039" stroke-width="3"/>
<path d="M-356.295 457.091C-365.861 388.172 -316.469 298.541 -42.3803 491.366C300.231 732.397 270.788 729.806 494.945 766.435C719.103 803.063 862.912 871.683 1035.28 1024.8C1207.66 1177.92 1247.88 1234.57 1396.4 1264.41C1544.91 1294.25 1563.01 1236.12 1725.4 1352.93" stroke="#945D39" stroke-width="3"/>
<path d="M-337.111 476.25C-346.61 407.134 -297.03 317.172 -22.7189 510.254C320.17 751.606 290.681 749.042 515.165 785.514C739.649 821.986 883.613 890.642 1056.09 1044.02C1228.56 1197.39 1268.78 1254.17 1417.51 1283.92C1566.24 1313.68 1584.43 1255.34 1746.95 1372.32" stroke="#8B5A39" stroke-width="3"/>
<path d="M-315.554 495.625C-325.155 426.685 -275.766 337.053 -1.39891 530.038C341.559 771.27 312.094 768.666 536.428 805.397C760.763 842.127 904.704 910.823 1077.26 1064.05C1249.82 1217.28 1290.1 1273.96 1438.74 1303.87C1587.37 1333.78 1605.46 1275.64 1768.02 1392.54" stroke="#82563A" stroke-width="3"/>
<path d="M-294.014 514.988C-303.579 446.069 -254.188 356.438 19.901 549.263C362.512 790.295 333.069 787.703 557.227 824.332C781.384 860.96 925.193 929.58 1097.57 1082.7C1269.94 1235.82 1310.16 1292.47 1458.68 1322.31C1607.19 1352.15 1625.29 1294.01 1787.68 1410.83" stroke="#79533A" stroke-width="3"/>
<path d="M-272.957 535.229C-282.421 466.133 -232.839 376.172 41.194 569.094C383.736 810.246 354.269 807.695 578.576 844.065C802.883 880.435 946.715 949.014 1119 1102.28C1291.29 1255.55 1331.46 1312.29 1480.06 1341.98C1628.67 1371.66 1646.88 1313.34 1809.23 1430.21" stroke="#704F3A" stroke-width="3"/>
<path d="M-253.273 553.521C-262.874 484.582 -213.484 394.95 60.8823 587.935C403.841 829.167 374.375 826.563 598.71 863.293C823.044 900.024 966.985 968.72 1139.55 1121.95C1312.11 1275.17 1352.38 1331.85 1501.02 1361.76C1649.65 1391.68 1667.74 1333.53 1830.3 1450.44" stroke="#674C3A" stroke-width="3"/>
<path d="M-232.233 573.752C-241.696 504.657 -192.114 414.696 81.919 607.617C424.461 848.769 394.994 846.218 619.301 882.588C843.608 918.958 987.44 987.538 1159.73 1140.8C1332.01 1294.07 1372.18 1350.81 1520.79 1380.5C1669.4 1410.19 1687.6 1351.86 1849.96 1468.74" stroke="#5E483A" stroke-width="3"/>
<path d="M-210.676 593.126C-220.242 524.207 -170.85 434.576 103.239 627.401C445.85 868.432 416.407 865.841 640.564 902.469C864.722 939.098 1008.53 1007.72 1180.9 1160.84C1353.28 1313.95 1393.5 1370.6 1542.01 1400.45C1690.53 1430.29 1708.63 1372.15 1871.02 1488.96" stroke="#55453A" stroke-width="3"/>
<path d="M-191.492 612.285C-200.991 543.169 -151.411 453.207 122.9 646.289C465.789 887.641 436.3 885.077 660.784 921.549C885.268 958.021 1029.23 1026.68 1201.71 1180.05C1374.18 1333.43 1414.4 1390.2 1563.13 1419.96C1711.85 1449.71 1730.05 1391.38 1892.57 1508.35" stroke="#4C413A" stroke-width="3"/>
<path d="M-169.952 631.65C-179.517 562.731 -130.126 473.099 143.963 665.925C486.574 906.956 457.131 904.365 681.289 940.993C905.447 977.622 1049.26 1046.24 1221.63 1199.36C1394 1352.48 1434.22 1409.13 1582.74 1438.97C1731.26 1468.81 1749.35 1410.68 1911.75 1527.49" stroke="#433E3A" stroke-width="3"/>
</svg>
