<svg width="150" height="198" viewBox="0 0 150 198" fill="none" xmlns="http://www.w3.org/2000/svg">
<rect x="1.5" y="1.5" width="147" height="195" rx="8.5" fill="#595959" stroke="#787878" stroke-width="3"/>
<circle cx="75" cy="67" r="50" fill="#F68338"/>
<path d="M74.4999 66.5C71.2458 66.5 68.46 65.3413 66.1426 63.0239C63.8253 60.7066 62.6666 57.9208 62.6666 54.6666C62.6666 51.4125 63.8253 48.6267 66.1426 46.3094C68.46 43.992 71.2458 42.8333 74.4999 42.8333C77.7541 42.8333 80.5398 43.992 82.8572 46.3094C85.1746 48.6267 86.3333 51.4125 86.3333 54.6666C86.3333 57.9208 85.1746 60.7066 82.8572 63.0239C80.5398 65.3413 77.7541 66.5 74.4999 66.5ZM50.8333 90.1666V81.8833C50.8333 80.2069 51.2652 78.6656 52.129 77.2594C52.9909 75.8552 54.1367 74.7833 55.5666 74.0437C58.6235 72.5153 61.7298 71.3684 64.8853 70.6032C68.0409 69.8399 71.2458 69.4583 74.4999 69.4583C77.7541 69.4583 80.9589 69.8399 84.1145 70.6032C87.2701 71.3684 90.3763 72.5153 93.4333 74.0437C94.8631 74.7833 96.009 75.8552 96.8708 77.2594C97.7347 78.6656 98.1666 80.2069 98.1666 81.8833V90.1666H50.8333Z" fill="white"/>
</svg>
